<svg width="48" height="48" viewBox="0 0 48 48" fill="none" xmlns="http://www.w3.org/2000/svg">
<path d="M13.9999 26L21.9999 44C23.5912 44 25.1174 43.3679 26.2426 42.2426C27.3678 41.1174 27.9999 39.5913 27.9999 38V30H39.3199C39.8998 30.0066 40.4741 29.887 41.0031 29.6496C41.5321 29.4121 42.0032 29.0625 42.3837 28.625C42.7641 28.1874 43.0449 27.6724 43.2066 27.1155C43.3683 26.5586 43.407 25.9733 43.3199 25.4L40.5599 7.40001C40.4153 6.44619 39.9308 5.57679 39.1958 4.95199C38.4607 4.3272 37.5246 3.9891 36.5599 4.00001H13.9999M13.9999 26V4.00001M13.9999 26H8.65994C7.52802 26.02 6.42814 25.6237 5.56911 24.8864C4.71008 24.149 4.15169 23.1219 3.99994 22V8.00001C4.15169 6.87812 4.71008 5.85101 5.56911 5.11364C6.42814 4.37628 7.52802 3.97999 8.65994 4.00001H13.9999" stroke="white" stroke-width="4" stroke-linecap="round" stroke-linejoin="round"/>
</svg>
